<?xml version="1.0" encoding="UTF-8"?><svg id="Camada_1" xmlns="http://www.w3.org/2000/svg" viewBox="0 0 1920 237.84"><defs><style>.cls-1{fill:#003da6;stroke-width:0px;}</style></defs><path class="cls-1" d="m662.28,150.68c-3.64,4.45-8.33,6.68-14.09,6.68h-17.59c-5.86,0-10.59-2.25-14.17-6.76-3.58-4.5-5.37-10.4-5.37-17.67v-28.01c0-7.27,1.84-13.17,5.54-17.67,3.69-4.5,8.58-6.76,14.66-6.76h17.26c5.64,0,10.2,1.98,13.68,5.94,3.47,3.96,5.21,9.2,5.21,15.72h22.15c0-8.25-1.71-15.5-5.13-21.74-3.42-6.24-8.22-11.1-14.41-14.58-6.19-3.47-13.36-5.21-21.5-5.21h-17.26c-8.47,0-15.94,1.79-22.39,5.37-6.46,3.58-11.46,8.66-14.98,15.23-3.53,6.57-5.29,14.14-5.29,22.72v29.97c0,8.58,1.74,16.15,5.21,22.72,3.47,6.57,8.39,11.64,14.74,15.23,6.35,3.58,13.71,5.37,22.07,5.37h17.59c8.25,0,15.53-1.82,21.82-5.46,6.29-3.64,11.18-8.79,14.66-15.47,3.47-6.68,5.21-14.41,5.21-23.21h-22.15c0,7.27-1.82,13.14-5.46,17.59Z"/><polygon class="cls-1" points="801.82 61.91 773.81 61.91 728.66 111.01 728.66 61.91 705.92 61.91 705.92 175.93 728.66 175.93 728.66 140.01 739.7 128.15 777.24 175.93 804.92 175.93 755.02 111.83 801.82 61.91"/><rect class="cls-1" x="1047.97" y="61.91" width="22.48" height="114.01"/><polygon class="cls-1" points="1168.89 139.44 1114.17 61.91 1094.14 61.91 1094.14 175.92 1116.12 175.92 1116.12 98.4 1170.85 175.92 1190.88 175.92 1190.88 61.91 1168.89 61.91 1168.89 139.44"/><path class="cls-1" d="m974.47,132.76h31.6v3.58c0,5.97-1.82,10.97-5.46,14.98-3.64,4.02-8.22,6.03-13.76,6.03h-19.22c-5.97,0-10.78-2.25-14.41-6.76-3.64-4.5-5.46-10.4-5.46-17.67v-28.01c0-7.27,1.84-13.17,5.54-17.67,3.69-4.5,8.58-6.76,14.66-6.76h18.24c5.64,0,10.2,1.79,13.68,5.37,3.47,3.58,5.21,8.31,5.21,14.17h22.15c0-7.82-1.71-14.71-5.13-20.68-3.42-5.97-8.22-10.59-14.41-13.84-6.19-3.26-13.36-4.89-21.5-4.89h-18.24c-8.47,0-15.94,1.79-22.39,5.37-6.46,3.58-11.46,8.66-14.98,15.23-3.53,6.57-5.29,14.14-5.29,22.72v29.97c0,8.58,1.76,16.15,5.29,22.72,3.53,6.57,8.5,11.64,14.9,15.23,6.41,3.58,13.79,5.37,22.15,5.37h19.22c8.03,0,15.2-1.74,21.5-5.21,6.3-3.47,11.18-8.31,14.66-14.5,3.47-6.19,5.21-13.25,5.21-21.17v-23.13h-53.75v19.54Z"/><path class="cls-1" d="m1259.67,132.76h31.6v3.58c0,5.97-1.82,10.97-5.46,14.98-3.64,4.02-8.22,6.03-13.76,6.03h-19.22c-5.97,0-10.78-2.25-14.41-6.76-3.64-4.5-5.46-10.4-5.46-17.67v-28.01c0-7.27,1.84-13.17,5.54-17.67,3.69-4.5,8.58-6.76,14.66-6.76h18.24c5.64,0,10.2,1.79,13.68,5.37,3.47,3.58,5.21,8.31,5.21,14.17h22.15c0-7.82-1.71-14.71-5.13-20.68-3.42-5.97-8.22-10.59-14.41-13.84-6.19-3.26-13.36-4.89-21.5-4.89h-18.24c-8.47,0-15.94,1.79-22.39,5.37-6.46,3.58-11.46,8.66-14.98,15.23-3.53,6.57-5.29,14.14-5.29,22.72v29.97c0,8.58,1.76,16.15,5.29,22.72,3.53,6.57,8.5,11.64,14.9,15.23,6.41,3.58,13.79,5.37,22.15,5.37h19.22c8.03,0,15.2-1.74,21.5-5.21,6.3-3.47,11.18-8.31,14.66-14.5,3.47-6.19,5.21-13.25,5.21-21.17v-23.13h-53.75v19.54Z"/><path class="cls-1" d="m477.46,107.24v-14.9c0-5.98-1.39-11.29-4.16-15.94-2.78-4.65-6.68-8.22-11.69-10.73-5.02-2.51-10.79-3.77-17.3-3.77h-59.11v112.13h22.11v-35.4h35.72c6.83,0,12.84-1.31,18.02-3.92,5.18-2.62,9.21-6.3,12.09-11.05,2.88-4.75,4.32-10.22,4.32-16.42Zm-22.11-.96c0,3.95-1.18,7.13-3.52,9.53-2.35,2.4-5.39,3.6-9.13,3.6h-35.4v-38.28h36.68c3.42,0,6.17,1.1,8.25,3.28,2.08,2.19,3.12,5.15,3.12,8.89v12.97Z"/><path class="cls-1" d="m864.05,61.91h-10.18l-44.63,114.02h23.45l10.1-26.55h42.51l10.1,26.55h23.45l-44.63-114.02h-10.18Zm0,68.58h-15.23l15.23-40.82,15.23,40.82h-15.23Z"/><path class="cls-1" d="m527.37,61.91h-10.18l-44.63,114.02h23.45l10.1-26.55h42.51l10.1,26.55h23.45l-44.63-114.02h-10.18Zm0,68.58h-15.23l15.23-40.82,15.23,40.82h-15.23Z"/><path class="cls-1" d="m1673.69,133.92c-1.77-2.9-4.38-5.48-7.81-7.73v-.32c6.01-2.15,10.6-5.29,13.77-9.42,3.17-4.13,4.75-8.99,4.75-14.58v-11.28c0-8.59-2.98-15.52-8.94-20.78-5.96-5.26-13.83-7.89-23.6-7.89h-59.92v114.02h22.23v-41.69h27.22c3.65,0,6.71,1.13,9.18,3.38,2.47,2.25,4.4,5.69,5.8,10.31l8.94,28h23.05l-9.44-29.93c-1.72-5.16-3.46-9.18-5.23-12.08Zm-11.52-31.89c0,3.87-1.29,7.01-3.87,9.42s-6.12,3.63-10.63,3.63h-33.51v-33.83h37.37c3.22,0,5.8.94,7.73,2.82,1.93,1.88,2.9,4.38,2.9,7.49v10.47Z"/><polygon class="cls-1" points="1694.53 81.24 1730.29 81.24 1730.29 175.93 1752.52 175.93 1752.52 81.24 1788.28 81.24 1788.28 61.91 1694.53 61.91 1694.53 81.24"/><path class="cls-1" d="m1883.49,120.13c-5.15-4.35-12.62-7.38-22.39-9.1l-29.48-5.15c-7.41-1.29-11.11-4.62-11.11-9.99v-4.35c0-3.22,1.37-5.8,4.11-7.73,2.74-1.93,6.36-2.9,10.87-2.9h18.2c4.08,0,7.36,1.37,9.83,4.11,2.47,2.74,3.7,6.36,3.7,10.87h21.91c0-6.87-1.48-12.91-4.43-18.12-2.96-5.21-7.12-9.26-12.48-12.16-5.37-2.9-11.54-4.35-18.52-4.35h-18.2c-7.41,0-13.93,1.18-19.57,3.54-5.64,2.36-9.99,5.72-13.05,10.07-3.06,4.35-4.59,9.37-4.59,15.06v9.02c0,7.09,2.5,12.91,7.49,17.48,4.99,4.57,12.32,7.65,21.99,9.26l29.64,4.99c7.73,1.29,11.6,4.57,11.6,9.83v5.48c0,3.33-1.48,5.99-4.43,7.97-2.96,1.99-6.79,2.98-11.52,2.98h-17.88c-5.05,0-9-1.58-11.84-4.75-2.85-3.17-4.27-7.54-4.27-13.13h-21.91c0,11.81,3.33,21.02,9.99,27.63,6.66,6.6,15.89,9.91,27.71,9.91h18.53c7.51,0,14.12-1.21,19.81-3.62,5.69-2.42,10.12-5.82,13.29-10.23,3.17-4.4,4.75-9.45,4.75-15.14v-10.63c0-6.87-2.58-12.48-7.73-16.83Z"/><path class="cls-1" d="m1471.5,92.35c0-5.98-1.39-11.29-4.16-15.94-2.78-4.65-6.68-8.22-11.69-10.73-5.02-2.51-10.79-3.77-17.3-3.77h-59.11v112.13h22.11v-35.4h35.72c6.83,0,12.84-1.31,18.02-3.92,5.18-2.62,9.21-6.3,12.09-11.05,2.88-4.75,4.32-10.22,4.32-16.42v-14.9Zm-22.11,13.94c0,3.95-1.18,7.13-3.52,9.53-2.35,2.4-5.39,3.6-9.13,3.6h-35.4v-38.28h36.68c3.42,0,6.17,1.1,8.25,3.28,2.08,2.19,3.12,5.15,3.12,8.89v12.97Z"/><path class="cls-1" d="m1523.25,61.91h-10.18l-44.63,114.02h23.45l10.1-26.55h42.51l10.1,26.55h23.45l-44.63-114.02h-10.18Zm0,68.58h-15.23l15.23-40.82,15.23,40.82h-15.23Z"/><path class="cls-1" d="m144.01,156.43l36.96-36.96c.36-.36.56-.84.56-1.35v-36.61c0-.51-.2-.99-.56-1.35l-36.51-36.5c-.72-.72-1.69-1.12-2.7-1.12H32.12c-.53,0-.95.43-.95.95v36.27c0,.53.43.96.95.96h109.31c1.05,0,1.91.85,1.91,1.91v34.37c0,1.05-.85,1.91-1.91,1.91h-73.67c-.51,0-.99.2-1.35.56l-37.07,37.07c-.36.36-.56.84-.56,1.35v37.39h38.19v-37.22c0-.53.43-.95.95-.95h19.83c1.01,0,1.98.4,2.7,1.12l37.06,37.06h54.01l-37.5-37.5c-.37-.37-.37-.98,0-1.35Z"/><path class="cls-1" d="m326.79,120.05c.72-.72,1.12-1.7,1.12-2.71v-35.02c0-1.01-.4-1.98-1.12-2.7l-35.96-35.94c-.71-.73-1.68-1.12-2.71-1.12h-116.76c-.43,0-.64.51-.34.81l33.42,33.41,3.68,3.68c.18.18.42.28.67.28h79.01c1.05,0,1.9.85,1.9,1.9v34.38c0,1.05-.86,1.91-1.91,1.91h-73.66c-.51,0-1,.2-1.36.55l-37.07,37.07c-.35.36-.55.85-.55,1.35v3.75c0,.25.1.5.28.68l32.97,32.97h4.94v-37.22c0-.54.43-.96.96-.96h19.82c1.02,0,1.99.39,2.71,1.12l37.06,37.06h54.01l-37.5-37.51c-.38-.38-.38-.98,0-1.35l36.39-36.39Z"/></svg>